<?xml version="1.0" standalone="no"?>
<!DOCTYPE svg PUBLIC "-//W3C//DTD SVG 20010904//EN"
 "http://www.w3.org/TR/2001/REC-SVG-20010904/DTD/svg10.dtd">
<svg version="1.0" xmlns="http://www.w3.org/2000/svg"
 width="360.000000pt" height="203.000000pt" viewBox="0 0 360.000000 203.000000"
 preserveAspectRatio="xMidYMid meet">

<g transform="translate(0.000000,203.000000) scale(0.100000,-0.100000)"
fill="#000000" stroke="none">
<path d="M1817 1603 c-18 -17 0 -43 82 -128 50 -50 93 -103 97 -118 11 -46 -1
-122 -25 -155 -12 -17 -40 -41 -63 -54 -46 -25 -58 -45 -34 -54 42 -16 122 39
157 108 28 55 27 142 -2 199 -22 45 -176 209 -195 209 -6 0 -14 -3 -17 -7z"/>
<path d="M1967 1583 c-16 -16 -4 -42 39 -83 61 -60 86 -111 93 -190 5 -56 9
-65 26 -65 18 0 20 8 23 63 4 80 -24 144 -97 225 -50 54 -69 65 -84 50z"/>
<path d="M1710 1560 c0 -5 8 -10 18 -11 16 0 16 -1 -1 -8 -16 -6 -11 -14 34
-55 47 -43 53 -46 67 -32 15 15 12 20 -33 66 -45 46 -85 65 -85 40z"/>
<path d="M1560 1414 c0 -12 64 -79 72 -76 5 1 14 -10 20 -24 9 -19 18 -24 34
-21 18 3 21 0 19 -20 -2 -17 6 -28 26 -40 15 -9 26 -20 23 -24 -2 -4 6 -5 18
-2 17 3 19 2 10 -5 -11 -7 -7 -11 14 -16 28 -7 48 8 37 29 -4 5 -2 6 3 2 5 -5
9 -13 9 -18 0 -5 3 -9 8 -9 4 0 14 0 23 0 23 0 74 58 74 84 -1 20 -1 21 -15 2
-8 -11 -18 -17 -21 -13 -8 7 20 37 35 37 26 0 -16 93 -46 104 -26 10 -39 -11
-20 -32 9 -10 17 -24 17 -31 0 -7 4 -10 9 -7 5 4 6 -8 1 -27 -13 -54 -21 -67
-46 -73 -35 -9 -91 4 -98 22 -4 11 -13 13 -28 9 -17 -5 -19 -4 -9 3 20 14
-113 152 -146 152 -13 0 -23 -3 -23 -6z"/>
<path d="M1537 1323 c-19 -18 1 -48 87 -131 91 -88 129 -111 161 -98 24 9 17
26 -17 44 -18 9 -74 56 -124 105 -93 89 -96 92 -107 80z"/>
<path d="M1550 1165 c-11 -14 -4 -25 51 -79 103 -100 223 -131 344 -89 64 23
165 119 165 157 0 41 -31 32 -70 -21 -50 -67 -114 -98 -205 -98 -84 1 -133 23
-210 96 -29 27 -54 49 -57 49 -3 0 -11 -7 -18 -15z"/>
<path d="M1498 793 c9 -3 12 -39 12 -128 0 -89 -3 -125 -12 -128 -7 -3 9 -6
37 -6 38 -1 46 2 37 11 -8 8 -12 53 -12 135 l0 123 -37 -1 c-21 0 -32 -3 -25
-6z"/>
<path d="M2188 757 l4 -43 -40 4 c-33 3 -42 0 -61 -23 -30 -39 -29 -108 2
-139 20 -20 33 -23 103 -23 43 -1 73 1 67 4 -10 3 -13 40 -13 134 l0 129 -33
0 c-32 0 -32 0 -29 -43z m0 -130 c3 -76 3 -77 -22 -77 -21 0 -27 7 -35 38 -16
59 10 129 44 119 6 -2 11 -38 13 -80z"/>
<path d="M2327 794 c-13 -13 -7 -52 9 -58 22 -9 46 13 42 38 -3 21 -37 34 -51
20z"/>
<path d="M2538 793 c6 -2 12 -22 12 -42 0 -35 -2 -38 -25 -33 -67 12 -113 -40
-99 -114 10 -55 40 -71 131 -71 43 -1 72 1 66 4 -10 3 -13 40 -13 134 l0 129
-42 -1 c-24 0 -37 -3 -30 -6z m7 -163 c0 -70 -1 -75 -22 -78 -29 -4 -47 37
-40 91 6 44 24 69 46 65 13 -3 16 -18 16 -78z"/>
<path d="M1087 749 c-23 -13 -39 -56 -32 -81 4 -10 33 -32 66 -49 49 -24 60
-34 57 -52 -7 -50 -110 -20 -121 36 -2 12 -5 5 -6 -18 -1 -35 2 -40 22 -42 12
-1 39 -5 60 -9 44 -7 84 14 93 50 9 37 -10 61 -71 90 -40 19 -55 31 -55 46 0
43 70 37 94 -8 l15 -27 1 35 0 35 -53 2 c-28 1 -60 -2 -70 -8z"/>
<path d="M1258 713 c9 -3 12 -40 12 -134 l0 -129 43 1 c23 0 36 3 30 6 -8 3
-13 23 -13 51 0 36 3 43 12 34 13 -13 47 -16 73 -6 22 9 45 56 45 93 0 61 -81
116 -117 80 -8 -8 -13 -8 -17 0 -4 6 -24 11 -44 10 -20 0 -31 -3 -24 -6z m133
-34 c15 -28 6 -106 -14 -127 -28 -28 -47 1 -47 73 0 34 3 65 7 68 14 14 43 6
54 -14z"/>
<path d="M1654 708 c-40 -19 -55 -82 -33 -131 20 -44 96 -62 135 -32 18 14 17
14 -10 5 -35 -13 -76 9 -76 40 0 17 7 20 53 20 30 0 56 3 59 6 11 10 -11 69
-33 87 -23 19 -63 21 -95 5z m66 -17 c5 -11 10 -31 10 -45 0 -22 -4 -26 -30
-26 -26 0 -30 3 -30 29 0 59 28 82 50 42z"/>
<path d="M1828 708 c7 -7 12 -41 12 -83 0 -42 -5 -76 -12 -83 -9 -9 -1 -12 37
-12 38 0 46 3 37 12 -7 7 -12 39 -12 74 0 65 13 89 47 82 16 -3 18 -14 18 -86
l0 -82 45 1 c25 0 39 3 33 6 -9 3 -13 28 -13 74 0 56 -4 73 -20 89 -22 22 -69
26 -89 8 -11 -10 -14 -10 -18 0 -3 6 -21 12 -41 12 -28 0 -33 -3 -24 -12z"/>
<path d="M2315 625 l0 -95 35 0 35 0 -3 95 -3 95 -32 0 -32 0 0 -95z"/>
</g>
</svg>
